<svg xmlns="http://www.w3.org/2000/svg" width="800" height="600" viewBox="0 0 800 600">
  <defs>
    <linearGradient id="heroGradient" x1="0%" y1="0%" x2="100%" y2="100%">
      <stop offset="0%" style="stop-color:#0066cc;stop-opacity:0.8" />
      <stop offset="50%" style="stop-color:#00cccc;stop-opacity:0.6" />
      <stop offset="100%" style="stop-color:#1a1a1a;stop-opacity:0.9" />
    </linearGradient>
    <pattern id="circuitPattern" patternUnits="userSpaceOnUse" width="100" height="100">
      <rect width="100" height="100" fill="none"/>
      <circle cx="20" cy="20" r="3" fill="rgba(255,255,255,0.1)"/>
      <circle cx="80" cy="20" r="3" fill="rgba(255,255,255,0.1)"/>
      <circle cx="20" cy="80" r="3" fill="rgba(255,255,255,0.1)"/>
      <circle cx="80" cy="80" r="3" fill="rgba(255,255,255,0.1)"/>
      <circle cx="50" cy="50" r="3" fill="rgba(255,255,255,0.1)"/>
      <line x1="20" y1="20" x2="80" y2="20" stroke="rgba(255,255,255,0.05)" stroke-width="1"/>
      <line x1="20" y1="80" x2="80" y2="80" stroke="rgba(255,255,255,0.05)" stroke-width="1"/>
      <line x1="20" y1="20" x2="20" y2="80" stroke="rgba(255,255,255,0.05)" stroke-width="1"/>
      <line x1="80" y1="20" x2="80" y2="80" stroke="rgba(255,255,255,0.05)" stroke-width="1"/>
      <line x1="20" y1="20" x2="50" y2="50" stroke="rgba(255,255,255,0.05)" stroke-width="1"/>
      <line x1="80" y1="20" x2="50" y2="50" stroke="rgba(255,255,255,0.05)" stroke-width="1"/>
      <line x1="20" y1="80" x2="50" y2="50" stroke="rgba(255,255,255,0.05)" stroke-width="1"/>
      <line x1="80" y1="80" x2="50" y2="50" stroke="rgba(255,255,255,0.05)" stroke-width="1"/>
    </pattern>
  </defs>

  <!-- Background gradient -->
  <rect width="800" height="600" fill="url(#heroGradient)"/>

  <!-- Circuit pattern overlay -->
  <rect width="800" height="600" fill="url(#circuitPattern)"/>

  <!-- Abstract geometric shapes -->
  <g opacity="0.3">
    <polygon points="100,50 200,100 150,200 50,150" fill="rgba(255,255,255,0.1)" stroke="rgba(255,255,255,0.2)" stroke-width="2"/>
    <polygon points="600,100 700,50 750,150 650,200" fill="rgba(255,255,255,0.1)" stroke="rgba(255,255,255,0.2)" stroke-width="2"/>
    <polygon points="300,400 400,350 450,450 350,500" fill="rgba(255,255,255,0.1)" stroke="rgba(255,255,255,0.2)" stroke-width="2"/>
  </g>

  <!-- Central focus element -->
  <g transform="translate(400,300)">
    <circle r="80" fill="none" stroke="rgba(255,255,255,0.3)" stroke-width="2"/>
    <circle r="60" fill="none" stroke="rgba(255,255,255,0.2)" stroke-width="1"/>
    <circle r="40" fill="none" stroke="rgba(255,255,255,0.1)" stroke-width="1"/>

    <!-- AI/Tech symbols -->
    <g fill="rgba(255,255,255,0.4)">
      <circle cx="-30" cy="-30" r="4"/>
      <circle cx="30" cy="-30" r="4"/>
      <circle cx="-30" cy="30" r="4"/>
      <circle cx="30" cy="30" r="4"/>
      <circle cx="0" cy="0" r="6"/>

      <line x1="-30" y1="-30" x2="30" y2="-30" stroke="rgba(255,255,255,0.3)" stroke-width="2"/>
      <line x1="-30" y1="30" x2="30" y2="30" stroke="rgba(255,255,255,0.3)" stroke-width="2"/>
      <line x1="-30" y1="-30" x2="-30" y2="30" stroke="rgba(255,255,255,0.3)" stroke-width="2"/>
      <line x1="30" y1="-30" x2="30" y2="30" stroke="rgba(255,255,255,0.3)" stroke-width="2"/>

      <line x1="-30" y1="-30" x2="0" y2="0" stroke="rgba(255,255,255,0.3)" stroke-width="2"/>
      <line x1="30" y1="-30" x2="0" y2="0" stroke="rgba(255,255,255,0.3)" stroke-width="2"/>
      <line x1="-30" y1="30" x2="0" y2="0" stroke="rgba(255,255,255,0.3)" stroke-width="2"/>
      <line x1="30" y1="30" x2="0" y2="0" stroke="rgba(255,255,255,0.3)" stroke-width="2"/>
    </g>
  </g>

  <!-- Floating particles -->
  <g opacity="0.6">
    <circle cx="150" cy="150" r="2" fill="rgba(255,255,255,0.8)"/>
    <circle cx="650" cy="200" r="2" fill="rgba(255,255,255,0.8)"/>
    <circle cx="200" cy="450" r="2" fill="rgba(255,255,255,0.8)"/>
    <circle cx="700" cy="400" r="2" fill="rgba(255,255,255,0.8)"/>
    <circle cx="100" cy="350" r="2" fill="rgba(255,255,255,0.8)"/>
    <circle cx="750" cy="250" r="2" fill="rgba(255,255,255,0.8)"/>
  </g>
</svg>
